<svg width="25" height="24" viewBox="0 0 25 24" fill="none" xmlns="http://www.w3.org/2000/svg">
<path d="M17 15H16.4375V15.75C16.4375 16.1719 16.1094 16.5 15.6875 16.5H13.8125C13.4375 16.5 13.0625 16.1719 13.0625 15.75V15H12.5C11.7031 15 11 14.3438 11 13.5V3C11 2.20312 11.7031 1.5 12.5 1.5V0.75C12.5 0.375 12.875 0 13.25 0H16.25C16.6719 0 17 0.375 17 0.75V1.5C17.8438 1.5 18.5 2.20312 18.5 3V13.5C18.5 14.3438 17.8438 15 17 15ZM2.75 21H2.84375C1.39062 19.4062 0.5 17.3438 0.5 15C0.5 10.0781 4.57812 6 9.5 6V9C6.21875 9 3.5 11.7188 3.5 15C3.5 18.3281 6.21875 21 9.5 21H22.25C23.5156 21 24.5 22.0312 24.5 23.25C24.5 23.6719 24.1719 24 23.75 24H1.25C0.875 24 0.5 23.6719 0.5 23.25C0.5 22.0312 1.53125 21 2.75 21ZM19.625 19.5H9.875C9.6875 19.5 9.5 19.3594 9.5 19.125V18.375C9.5 18.1875 9.6875 18 9.875 18H19.625C19.8594 18 20 18.1875 20 18.375V19.125C20 19.3594 19.8594 19.5 19.625 19.5Z" fill="white"/>
</svg>