<svg width="25" height="25" viewBox="0 0 25 25" fill="none" xmlns="http://www.w3.org/2000/svg">
<path d="M23.2656 5.4375C23.4062 5.57812 23.6406 5.57812 23.8281 5.4375L24.8594 4.35938C25 4.21875 25 3.98438 24.8594 3.84375L21.1562 0.140625C21.0156 0 20.7812 0 20.6406 0.140625L19.5625 1.17188C19.4219 1.35938 19.4219 1.59375 19.5625 1.73438L20.6406 2.76562L19.0469 4.35938L15.8594 1.17188C15.7188 1.03125 15.4844 1.03125 15.3438 1.17188L14.2656 2.25C14.125 2.39062 14.125 2.625 14.2656 2.76562L14.7812 3.32812L4.65625 13.4531C3.76562 14.3438 3.34375 15.5625 3.48438 16.8281L3.85938 20.0625L1.09375 22.8281C0.953125 23.0156 0.953125 23.25 1.09375 23.3906L1.60938 23.9062C1.75 24.0469 1.98438 24.0469 2.125 23.9062L4.9375 21.1406C8.40625 21.5156 8.35938 21.5156 8.64062 21.5156C9.76562 21.5156 10.7969 21.0938 11.5469 20.3438L21.6719 10.2188L22.2344 10.7344C22.375 10.875 22.6094 10.875 22.75 10.7344L23.8281 9.65625C23.9688 9.51562 23.9688 9.28125 23.8281 9.14062L20.6406 5.95312L22.2344 4.35938L23.2656 5.4375ZM10 18.75C9.57812 19.125 9.01562 19.3594 8.45312 19.2656L6.01562 18.9844L5.73438 16.5469C5.6875 15.9844 5.875 15.4219 6.25 15.0469L6.85938 14.4375L8.17188 15.7969C8.45312 16.0781 8.92188 16.0781 9.20312 15.7969L9.76562 15.2344C10.0469 14.9531 10.0469 14.4844 9.76562 14.2031L8.40625 12.8438L10 11.2969L11.3594 12.6094C11.6406 12.8906 12.1094 12.8906 12.3906 12.6094L12.9531 12.0938C13.2344 11.7656 13.2344 11.2969 12.9531 11.0156L11.5938 9.65625L13.1875 8.10938L14.5469 9.42188C14.8281 9.70312 15.2969 9.70312 15.5781 9.42188L16.1406 8.85938C16.4219 8.57812 16.4219 8.10938 16.1406 7.82812L14.7812 6.51562L16.375 4.92188L20.0781 8.625L10 18.75Z" fill="white"/>
</svg>
