<svg width="24" height="25" viewBox="0 0 24 25" fill="none" xmlns="http://www.w3.org/2000/svg">
<path d="M11.25 5.38184V5.99121C11.25 7.30371 9.60938 7.95996 8.67188 7.02246L8.25 6.64746C8.10938 6.50684 7.92188 6.41309 7.73438 6.41309C7.3125 6.41309 6.98438 6.74121 6.98438 7.16309C6.98438 7.35059 7.07812 7.53809 7.21875 7.67871L7.59375 8.10059C8.53125 9.03809 7.875 10.6318 6.5625 10.6318H6C5.57812 10.6318 5.25 11.0068 5.25 11.3818C5.25 11.8037 5.57812 12.1318 6 12.1318H6.5625C7.875 12.1318 8.53125 13.7725 7.59375 14.71L7.21875 15.1318C7.07812 15.2725 6.98438 15.46 6.98438 15.6475C6.98438 16.0693 7.3125 16.3975 7.73438 16.3975C7.92188 16.3975 8.10938 16.3037 8.25 16.1631L8.67188 15.7881C9.60938 14.8506 11.25 15.5068 11.25 16.8193V17.3818C11.25 17.8037 11.5781 18.1318 12 18.1318C12.375 18.1318 12.75 17.8037 12.75 17.3818V16.8193C12.75 15.5068 14.3438 14.8506 15.2812 15.7881L15.7031 16.1631C15.8438 16.3037 16.0312 16.3975 16.2188 16.3975C16.6406 16.3975 16.9688 16.0693 16.9688 15.6475C16.9688 15.46 16.875 15.2725 16.7344 15.1318L16.3594 14.71C15.4219 13.7725 16.0781 12.1318 17.3906 12.1318H18C18.375 12.1318 18.75 11.8037 18.75 11.3818C18.75 11.0068 18.375 10.6318 18 10.6318H17.3906C16.0781 10.6318 15.4219 9.03809 16.3594 8.10059L16.7344 7.67871C16.875 7.53809 16.9688 7.35059 16.9688 7.16309C16.9688 6.74121 16.6406 6.41309 16.2188 6.41309C16.0312 6.41309 15.8438 6.50684 15.7031 6.64746L15.2812 7.02246C14.3438 7.95996 12.75 7.30371 12.75 5.99121V5.38184C12.75 5.00684 12.375 4.63184 12 4.63184C11.5781 4.63184 11.25 5.00684 11.25 5.38184ZM10.5 10.6318C10.0781 10.6318 9.75 10.3037 9.75 9.88184C9.75 9.50684 10.0781 9.13184 10.5 9.13184C10.875 9.13184 11.25 9.50684 11.25 9.88184C11.25 10.3037 10.875 10.6318 10.5 10.6318ZM13.5 12.1318C13.875 12.1318 14.25 12.5068 14.25 12.8818C14.25 13.3037 13.875 13.6318 13.5 13.6318C13.0781 13.6318 12.75 13.3037 12.75 12.8818C12.75 12.5068 13.0781 12.1318 13.5 12.1318ZM21.8438 4.06934L12.8438 0.319336C12.5625 0.225586 12.2812 0.178711 12 0.131836C11.6719 0.178711 11.3906 0.225586 11.1094 0.319336L2.10938 4.06934C1.3125 4.39746 0.703125 5.24121 0.703125 6.13184H0.75C0.75 15.46 6.09375 21.8818 11.1094 23.9912C11.3906 24.085 11.6719 24.1318 11.9531 24.1318C12.2812 24.1318 12.5625 24.085 12.8438 23.9912C16.875 22.3037 23.25 16.5381 23.25 6.13184C23.25 5.24121 22.6406 4.39746 21.8438 4.06934ZM12 21.8818C7.64062 20.1006 3 14.3818 3 6.13184L11.9062 2.42871C11.9531 2.42871 11.9531 2.42871 12 2.42871L21 6.13184C21 15.6475 15.0938 20.6162 12 21.8818Z" fill="white"/>
</svg>
