<svg width="24" height="25" viewBox="0 0 24 25" fill="none" xmlns="http://www.w3.org/2000/svg">
<path d="M22.3125 22.1033H20.3906C22.125 20.5564 23.25 18.2595 23.25 15.7283C23.25 11.1345 19.5469 7.33765 15 7.15015V4.94702C15 4.0564 14.4844 3.3064 13.7812 2.9314V2.08765C13.7812 1.15015 13.0312 0.353271 12.0938 0.353271H7.35938C6.42188 0.353271 5.67188 1.15015 5.67188 2.08765V2.9314C4.96875 3.3064 4.5 4.0564 4.5 4.94702V14.1814C4.5 15.2126 5.15625 16.1033 6.09375 16.3845V18.1658C6.09375 19.1033 6.84375 19.8533 7.82812 19.8533H11.625C12.6094 19.8533 13.3594 19.1033 13.3594 18.1658V16.3845C14.2969 16.1033 14.9531 15.2126 14.9531 14.1814V9.40015C18.3281 9.63452 20.9531 12.3533 20.9531 15.7283C20.9531 19.2439 18.0938 22.1033 14.5781 22.1033H1.6875C0.75 22.1033 0 22.9001 0 23.7908C0 24.1189 0.234375 24.3533 0.5625 24.3533H23.4375C23.7188 24.3533 24 24.1189 24 23.7908C24 22.9001 23.2031 22.1033 22.3125 22.1033ZM8.34375 17.6033V15.7283H11.1094V17.6033H8.34375ZM12.6562 14.2283H6.79688L6.75 14.1814L6.79688 4.85327H7.92188V2.60327H11.5312L11.625 4.85327H12.75L12.6562 14.2283Z" fill="white"/>
</svg>
