<svg width="31" height="24" viewBox="0 0 31 24" fill="none" xmlns="http://www.w3.org/2000/svg">
<path d="M7.25 12C6.875 12 6.5 11.6719 6.5 11.25C6.5 10.875 6.875 10.5 7.25 10.5C7.67188 10.5 8 10.875 8 11.25C8 11.6719 7.67188 12 7.25 12ZM15.5 8.25C13.25 8.25 11.375 6.42188 11.375 4.125C11.375 1.875 13.25 0 15.5 0C17.7969 0 19.625 1.875 19.625 4.125C19.625 6.42188 17.7969 8.25 15.5 8.25ZM27.7344 17.0625C27.2188 17.8125 26.3281 17.9062 25.7188 17.5312C24.9688 17.1094 23.0938 16.0781 20.75 15.2812V19.5H10.25V15.2812C7.95312 16.0781 6.07812 17.1094 5.32812 17.5312C4.71875 17.9062 3.78125 17.8125 3.3125 17.1094L2.46875 15.8438C2.09375 15.2344 2.14062 14.2031 2.9375 13.7344C3.5 13.4062 4.34375 12.9375 5.375 12.4219C6.6875 14.5781 10.0156 13.2656 9.45312 10.7812C11.3281 10.2188 13.3906 9.75 15.5 9.75C18.1719 9.75 20.7969 10.4531 23 11.2969C23.0469 13.1719 25.25 14.25 26.75 12.9844C27.2656 13.2656 27.7344 13.5 28.0625 13.7344C28.9062 14.2031 28.9531 15.1875 28.5312 15.8438L27.7344 17.0625ZM13.25 16.125C12.6406 16.125 12.125 16.6406 12.125 17.25C12.125 17.9062 12.6406 18.375 13.25 18.375C13.9062 18.375 14.375 17.9062 14.375 17.25C14.375 16.6406 13.9062 16.125 13.25 16.125ZM17.75 11.625C17.1406 11.625 16.625 12.1406 16.625 12.75C16.625 13.4062 17.1406 13.875 17.75 13.875C18.4062 13.875 18.875 13.4062 18.875 12.75C18.875 12.1406 18.4062 11.625 17.75 11.625ZM25.25 12C24.875 12 24.5 11.6719 24.5 11.25C24.5 10.875 24.875 10.5 25.25 10.5C25.6719 10.5 26 10.875 26 11.25C26 11.6719 25.6719 12 25.25 12ZM1.25 21H29.75C30.1719 21 30.5 21.375 30.5 21.75V23.25C30.5 23.6719 30.1719 24 29.75 24H1.25C0.875 24 0.5 23.6719 0.5 23.25V21.75C0.5 21.375 0.875 21 1.25 21Z" fill="white"/>
</svg>