<svg width="397" height="375" viewBox="0 0 397 375" fill="none" xmlns="http://www.w3.org/2000/svg">
<path d="M373 194.483C373 289.752 295.769 366.983 200.5 366.983C105.231 366.983 28 289.752 28 194.483C28 99.2137 105.231 21.9828 200.5 21.9828C295.769 21.9828 373 99.2137 373 194.483Z" stroke="#4D9CFF" stroke-width="15" stroke-linecap="round" stroke-linejoin="round"/>
<path d="M373 194.483C373 289.752 295.769 366.983 200.5 366.983C105.231 366.983 28 289.752 28 194.483C28 99.2137 105.231 21.9828 200.5 21.9828C295.769 21.9828 373 99.2137 373 194.483Z" stroke="#4D9CFF" stroke-width="15" stroke-linecap="round" stroke-linejoin="round"/>
<path d="M204.5 13C190.164 13 172.388 14.8349 158.518 18.4599L201 181L204.5 13Z" fill="white"/>
<path fill-rule="evenodd" clip-rule="evenodd" d="M172.341 16.4127C173.988 16.4694 174.863 18.3821 173.83 19.6658L141.658 59.6239C140.519 61.0378 138.238 60.3261 138.105 58.5157L136.464 36.099L119.351 18.0168C118.122 16.7179 119.085 14.5818 120.873 14.6432L172.341 16.4127Z" fill="#4D9CFF"/>
<path d="M213 22C213 26.4183 209.194 29.5 204.5 29.5C199.806 29.5 196 26.4183 196 22C196 17.5817 199.806 14.5 204.5 14.5C209.194 14.5 213 17.5817 213 22Z" fill="#4D9CFF"/>
<g opacity="0.141801" filter="url(#filter0_d)">
<circle cx="354" cy="115.983" r="28" fill="#4D9CFF"/>
</g>
<g filter="url(#filter1_d)">
<circle cx="354.5" cy="116.483" r="18.5" fill="#4D9CFF"/>
</g>
<path d="M353.359 123.983V112.543L350.659 114.203V111.203L353.359 109.583H356.139V123.983H353.359Z" fill="white"/>
<g opacity="0.141801" filter="url(#filter2_d)">
<circle cx="346" cy="285.983" r="28" fill="#4D9CFF"/>
</g>
<g filter="url(#filter3_d)">
<circle cx="346.5" cy="286.483" r="18.5" fill="#4D9CFF"/>
</g>
<path d="M341.465 293.963V291.603L347.505 286.243C347.958 285.843 348.278 285.466 348.465 285.113C348.652 284.759 348.745 284.429 348.745 284.123C348.745 283.683 348.655 283.293 348.475 282.953C348.295 282.606 348.042 282.336 347.715 282.143C347.388 281.943 347.005 281.843 346.565 281.843C346.105 281.843 345.698 281.949 345.345 282.163C344.998 282.369 344.728 282.646 344.535 282.993C344.342 283.333 344.252 283.703 344.265 284.103H341.465C341.465 283.116 341.682 282.263 342.115 281.543C342.548 280.823 343.152 280.266 343.925 279.873C344.698 279.479 345.598 279.283 346.625 279.283C347.565 279.283 348.405 279.489 349.145 279.903C349.892 280.309 350.478 280.879 350.905 281.613C351.332 282.346 351.545 283.196 351.545 284.163C351.545 284.876 351.445 285.469 351.245 285.943C351.045 286.409 350.748 286.843 350.355 287.243C349.962 287.636 349.478 288.083 348.905 288.583L345.005 292.003L344.785 291.403H351.545V293.963H341.465Z" fill="white"/>
<g opacity="0.141801" filter="url(#filter4_d)">
<circle cx="58" cy="285.983" r="28" fill="#4D9CFF"/>
</g>
<g filter="url(#filter5_d)">
<circle cx="58.5" cy="286.483" r="18.5" fill="#4D9CFF"/>
</g>
<path d="M57.6918 294.243C56.9718 294.243 56.2851 294.099 55.6318 293.813C54.9785 293.519 54.4085 293.109 53.9218 292.583C53.4418 292.056 53.0985 291.436 52.8918 290.723L55.5318 290.023C55.6718 290.549 55.9451 290.959 56.3518 291.253C56.7651 291.539 57.2118 291.683 57.6918 291.683C58.1051 291.683 58.4818 291.583 58.8218 291.383C59.1685 291.183 59.4418 290.913 59.6418 290.573C59.8485 290.233 59.9518 289.856 59.9518 289.443C59.9518 288.823 59.7385 288.293 59.3118 287.853C58.8918 287.406 58.3518 287.183 57.6918 287.183C57.4918 287.183 57.2985 287.213 57.1118 287.273C56.9251 287.326 56.7451 287.403 56.5718 287.503L55.3518 285.363L59.9318 281.563L60.1318 282.143H53.4518V279.583H62.4518V282.143L58.8918 285.583L58.8718 284.823C59.6985 284.949 60.3951 285.239 60.9618 285.693C61.5351 286.139 61.9685 286.693 62.2618 287.353C62.5618 288.006 62.7118 288.703 62.7118 289.443C62.7118 290.349 62.4818 291.166 62.0218 291.893C61.5618 292.613 60.9518 293.186 60.1918 293.613C59.4318 294.033 58.5985 294.243 57.6918 294.243Z" fill="white"/>
<g opacity="0.141801" filter="url(#filter6_d)">
<circle cx="43" cy="115.983" r="28" fill="#4D9CFF"/>
</g>
<g filter="url(#filter7_d)">
<circle cx="43.5" cy="116.483" r="18.5" fill="#4D9CFF"/>
</g>
<path d="M44.6077 123.983V121.743H38.3477V119.203L42.8877 109.583H46.0077L41.4677 119.203H44.6077V115.603H47.3677V119.203H48.6477V121.743H47.3677V123.983H44.6077Z" fill="white"/>
<g clip-path="url(#clip0)">
<path d="M122.416 164.54C120.496 164.54 118.762 164.204 117.214 163.532C115.678 162.848 114.412 161.876 113.416 160.616C112.432 159.344 111.808 157.832 111.544 156.08L116.656 155.324C117.016 156.812 117.76 157.958 118.888 158.762C120.016 159.566 121.3 159.968 122.74 159.968C123.544 159.968 124.324 159.842 125.08 159.59C125.836 159.338 126.454 158.966 126.934 158.474C127.426 157.982 127.672 157.376 127.672 156.656C127.672 156.392 127.63 156.14 127.546 155.9C127.474 155.648 127.348 155.414 127.168 155.198C126.988 154.982 126.73 154.778 126.394 154.586C126.07 154.394 125.656 154.22 125.152 154.064L118.42 152.084C117.916 151.94 117.328 151.736 116.656 151.472C115.996 151.208 115.354 150.83 114.73 150.338C114.106 149.846 113.584 149.198 113.164 148.394C112.756 147.578 112.552 146.552 112.552 145.316C112.552 143.576 112.99 142.13 113.866 140.978C114.742 139.826 115.912 138.968 117.376 138.404C118.84 137.84 120.46 137.564 122.236 137.576C124.024 137.6 125.62 137.906 127.024 138.494C128.428 139.082 129.604 139.94 130.552 141.068C131.5 142.184 132.184 143.552 132.604 145.172L127.312 146.072C127.12 145.232 126.766 144.524 126.25 143.948C125.734 143.372 125.116 142.934 124.396 142.634C123.688 142.334 122.944 142.172 122.164 142.148C121.396 142.124 120.67 142.232 119.986 142.472C119.314 142.7 118.762 143.036 118.33 143.48C117.91 143.924 117.7 144.452 117.7 145.064C117.7 145.628 117.874 146.09 118.222 146.45C118.57 146.798 119.008 147.08 119.536 147.296C120.064 147.512 120.604 147.692 121.156 147.836L125.656 149.06C126.328 149.24 127.072 149.48 127.888 149.78C128.704 150.068 129.484 150.476 130.228 151.004C130.984 151.52 131.602 152.204 132.082 153.056C132.574 153.908 132.82 154.988 132.82 156.296C132.82 157.688 132.526 158.906 131.938 159.95C131.362 160.982 130.582 161.84 129.598 162.524C128.614 163.196 127.498 163.7 126.25 164.036C125.014 164.372 123.736 164.54 122.416 164.54ZM145.344 164.54C143.328 164.54 141.6 164.09 140.16 163.19C138.72 162.29 137.616 161.066 136.848 159.518C136.08 157.97 135.696 156.224 135.696 154.28C135.696 152.312 136.092 150.554 136.884 149.006C137.688 147.458 138.816 146.24 140.268 145.352C141.72 144.464 143.436 144.02 145.416 144.02C147.708 144.02 149.628 144.602 151.176 145.766C152.736 146.918 153.732 148.496 154.164 150.5L149.268 151.796C148.98 150.788 148.476 150.002 147.756 149.438C147.048 148.874 146.244 148.592 145.344 148.592C144.312 148.592 143.466 148.844 142.806 149.348C142.146 149.84 141.66 150.518 141.348 151.382C141.036 152.234 140.88 153.2 140.88 154.28C140.88 155.972 141.252 157.346 141.996 158.402C142.752 159.446 143.868 159.968 145.344 159.968C146.448 159.968 147.288 159.716 147.864 159.212C148.44 158.708 148.872 157.988 149.16 157.052L154.164 158.096C153.612 160.16 152.568 161.75 151.032 162.866C149.496 163.982 147.6 164.54 145.344 164.54ZM157.764 164V144.56H162.084V149.312L161.616 148.7C161.868 148.028 162.204 147.416 162.624 146.864C163.044 146.312 163.56 145.856 164.172 145.496C164.64 145.208 165.15 144.986 165.702 144.83C166.254 144.662 166.824 144.56 167.412 144.524C168 144.476 168.588 144.488 169.176 144.56V149.132C168.636 148.964 168.006 148.91 167.286 148.97C166.578 149.018 165.936 149.18 165.36 149.456C164.784 149.72 164.298 150.074 163.902 150.518C163.506 150.95 163.206 151.466 163.002 152.066C162.798 152.654 162.696 153.32 162.696 154.064V164H157.764ZM181.285 164.54C179.293 164.54 177.535 164.114 176.011 163.262C174.499 162.398 173.311 161.216 172.447 159.716C171.595 158.204 171.169 156.476 171.169 154.532C171.169 152.408 171.589 150.56 172.429 148.988C173.269 147.416 174.427 146.198 175.903 145.334C177.379 144.458 179.077 144.02 180.997 144.02C183.037 144.02 184.771 144.5 186.199 145.46C187.627 146.42 188.683 147.77 189.367 149.51C190.051 151.25 190.291 153.296 190.087 155.648H185.245V153.848C185.245 151.868 184.927 150.446 184.291 149.582C183.667 148.706 182.641 148.268 181.213 148.268C179.545 148.268 178.315 148.778 177.523 149.798C176.743 150.806 176.353 152.3 176.353 154.28C176.353 156.092 176.743 157.496 177.523 158.492C178.315 159.476 179.473 159.968 180.997 159.968C181.957 159.968 182.779 159.758 183.463 159.338C184.147 158.918 184.669 158.312 185.029 157.52L189.925 158.924C189.193 160.7 188.035 162.08 186.451 163.064C184.879 164.048 183.157 164.54 181.285 164.54ZM174.841 155.648V152.012H187.729V155.648H174.841ZM203.187 164.54C201.195 164.54 199.437 164.114 197.913 163.262C196.401 162.398 195.213 161.216 194.349 159.716C193.497 158.204 193.071 156.476 193.071 154.532C193.071 152.408 193.491 150.56 194.331 148.988C195.171 147.416 196.329 146.198 197.805 145.334C199.281 144.458 200.979 144.02 202.899 144.02C204.939 144.02 206.673 144.5 208.101 145.46C209.529 146.42 210.585 147.77 211.269 149.51C211.953 151.25 212.193 153.296 211.989 155.648H207.147V153.848C207.147 151.868 206.829 150.446 206.193 149.582C205.569 148.706 204.543 148.268 203.115 148.268C201.447 148.268 200.217 148.778 199.425 149.798C198.645 150.806 198.255 152.3 198.255 154.28C198.255 156.092 198.645 157.496 199.425 158.492C200.217 159.476 201.375 159.968 202.899 159.968C203.859 159.968 204.681 159.758 205.365 159.338C206.049 158.918 206.571 158.312 206.931 157.52L211.827 158.924C211.095 160.7 209.937 162.08 208.353 163.064C206.781 164.048 205.059 164.54 203.187 164.54ZM196.743 155.648V152.012H209.631V155.648H196.743ZM228.774 164V154.82C228.774 154.376 228.75 153.812 228.702 153.128C228.654 152.432 228.504 151.736 228.252 151.04C228 150.344 227.586 149.762 227.01 149.294C226.446 148.826 225.642 148.592 224.598 148.592C224.178 148.592 223.728 148.658 223.248 148.79C222.768 148.922 222.318 149.18 221.898 149.564C221.478 149.936 221.13 150.488 220.854 151.22C220.59 151.952 220.458 152.924 220.458 154.136L217.65 152.804C217.65 151.268 217.962 149.828 218.586 148.484C219.21 147.14 220.146 146.054 221.394 145.226C222.654 144.398 224.238 143.984 226.146 143.984C227.67 143.984 228.912 144.242 229.872 144.758C230.832 145.274 231.576 145.928 232.104 146.72C232.644 147.512 233.028 148.34 233.256 149.204C233.484 150.056 233.622 150.836 233.67 151.544C233.718 152.252 233.742 152.768 233.742 153.092V164H228.774ZM215.49 164V144.56H219.846V151.004H220.458V164H215.49ZM238.773 141.86V137.54H243.669V141.86H238.773ZM238.773 164V144.56H243.669V164H238.773ZM262.313 164V154.82C262.313 154.376 262.289 153.812 262.241 153.128C262.193 152.432 262.043 151.736 261.791 151.04C261.539 150.344 261.125 149.762 260.549 149.294C259.985 148.826 259.181 148.592 258.137 148.592C257.717 148.592 257.267 148.658 256.787 148.79C256.307 148.922 255.857 149.18 255.437 149.564C255.017 149.936 254.669 150.488 254.393 151.22C254.129 151.952 253.997 152.924 253.997 154.136L251.189 152.804C251.189 151.268 251.501 149.828 252.125 148.484C252.749 147.14 253.685 146.054 254.933 145.226C256.193 144.398 257.777 143.984 259.685 143.984C261.209 143.984 262.451 144.242 263.411 144.758C264.371 145.274 265.115 145.928 265.643 146.72C266.183 147.512 266.567 148.34 266.795 149.204C267.023 150.056 267.161 150.836 267.209 151.544C267.257 152.252 267.281 152.768 267.281 153.092V164H262.313ZM249.029 164V144.56H253.385V151.004H253.997V164H249.029ZM280.268 173.18C279.164 173.18 278.114 173 277.118 172.64C276.122 172.292 275.228 171.8 274.436 171.164C273.656 170.54 273.02 169.808 272.528 168.968L277.064 166.772C277.376 167.348 277.82 167.786 278.396 168.086C278.984 168.386 279.62 168.536 280.304 168.536C281.036 168.536 281.726 168.41 282.374 168.158C283.022 167.918 283.538 167.552 283.922 167.06C284.318 166.58 284.504 165.98 284.48 165.26V159.608H285.092V144.56H289.376V165.332C289.376 165.812 289.352 166.262 289.304 166.682C289.268 167.114 289.196 167.54 289.088 167.96C288.776 169.148 288.194 170.126 287.342 170.894C286.502 171.662 285.47 172.232 284.246 172.604C283.022 172.988 281.696 173.18 280.268 173.18ZM279.836 164.54C278.048 164.54 276.482 164.09 275.138 163.19C273.794 162.29 272.744 161.066 271.988 159.518C271.244 157.97 270.872 156.224 270.872 154.28C270.872 152.3 271.25 150.542 272.006 149.006C272.774 147.458 273.848 146.24 275.228 145.352C276.608 144.464 278.228 144.02 280.088 144.02C281.936 144.02 283.49 144.47 284.75 145.37C286.01 146.27 286.964 147.494 287.612 149.042C288.26 150.59 288.584 152.336 288.584 154.28C288.584 156.224 288.254 157.97 287.594 159.518C286.946 161.066 285.974 162.29 284.678 163.19C283.382 164.09 281.768 164.54 279.836 164.54ZM280.628 160.184C281.72 160.184 282.59 159.938 283.238 159.446C283.898 158.954 284.372 158.264 284.66 157.376C284.948 156.488 285.092 155.456 285.092 154.28C285.092 153.104 284.948 152.072 284.66 151.184C284.372 150.296 283.91 149.606 283.274 149.114C282.65 148.622 281.828 148.376 280.808 148.376C279.716 148.376 278.816 148.646 278.108 149.186C277.412 149.714 276.896 150.428 276.56 151.328C276.224 152.216 276.056 153.2 276.056 154.28C276.056 155.372 276.218 156.368 276.542 157.268C276.866 158.156 277.364 158.864 278.036 159.392C278.708 159.92 279.572 160.184 280.628 160.184ZM162.283 206.54C160.363 206.54 158.629 206.204 157.081 205.532C155.545 204.848 154.279 203.876 153.283 202.616C152.299 201.344 151.675 199.832 151.411 198.08L156.523 197.324C156.883 198.812 157.627 199.958 158.755 200.762C159.883 201.566 161.167 201.968 162.607 201.968C163.411 201.968 164.191 201.842 164.947 201.59C165.703 201.338 166.321 200.966 166.801 200.474C167.293 199.982 167.539 199.376 167.539 198.656C167.539 198.392 167.497 198.14 167.413 197.9C167.341 197.648 167.215 197.414 167.035 197.198C166.855 196.982 166.597 196.778 166.261 196.586C165.937 196.394 165.523 196.22 165.019 196.064L158.287 194.084C157.783 193.94 157.195 193.736 156.523 193.472C155.863 193.208 155.221 192.83 154.597 192.338C153.973 191.846 153.451 191.198 153.031 190.394C152.623 189.578 152.419 188.552 152.419 187.316C152.419 185.576 152.857 184.13 153.733 182.978C154.609 181.826 155.779 180.968 157.243 180.404C158.707 179.84 160.327 179.564 162.103 179.576C163.891 179.6 165.487 179.906 166.891 180.494C168.295 181.082 169.471 181.94 170.419 183.068C171.367 184.184 172.051 185.552 172.471 187.172L167.179 188.072C166.987 187.232 166.633 186.524 166.117 185.948C165.601 185.372 164.983 184.934 164.263 184.634C163.555 184.334 162.811 184.172 162.031 184.148C161.263 184.124 160.537 184.232 159.853 184.472C159.181 184.7 158.629 185.036 158.197 185.48C157.777 185.924 157.567 186.452 157.567 187.064C157.567 187.628 157.741 188.09 158.089 188.45C158.437 188.798 158.875 189.08 159.403 189.296C159.931 189.512 160.471 189.692 161.023 189.836L165.523 191.06C166.195 191.24 166.939 191.48 167.755 191.78C168.571 192.068 169.351 192.476 170.095 193.004C170.851 193.52 171.469 194.204 171.949 195.056C172.441 195.908 172.687 196.988 172.687 198.296C172.687 199.688 172.393 200.906 171.805 201.95C171.229 202.982 170.449 203.84 169.465 204.524C168.481 205.196 167.365 205.7 166.117 206.036C164.881 206.372 163.603 206.54 162.283 206.54ZM188.307 206C186.963 206.252 185.643 206.36 184.347 206.324C183.063 206.3 181.911 206.078 180.891 205.658C179.883 205.226 179.115 204.536 178.587 203.588C178.107 202.7 177.855 201.8 177.831 200.888C177.807 199.964 177.795 198.92 177.795 197.756V181.16H182.691V197.468C182.691 198.224 182.697 198.908 182.709 199.52C182.733 200.12 182.859 200.6 183.087 200.96C183.519 201.644 184.209 202.016 185.157 202.076C186.105 202.136 187.155 202.088 188.307 201.932V206ZM174.483 190.34V186.56H188.307V190.34H174.483ZM200.585 206.54C198.593 206.54 196.835 206.114 195.311 205.262C193.799 204.398 192.611 203.216 191.747 201.716C190.895 200.204 190.469 198.476 190.469 196.532C190.469 194.408 190.889 192.56 191.729 190.988C192.569 189.416 193.727 188.198 195.203 187.334C196.679 186.458 198.377 186.02 200.297 186.02C202.337 186.02 204.071 186.5 205.499 187.46C206.927 188.42 207.983 189.77 208.667 191.51C209.351 193.25 209.591 195.296 209.387 197.648H204.545V195.848C204.545 193.868 204.227 192.446 203.591 191.582C202.967 190.706 201.941 190.268 200.513 190.268C198.845 190.268 197.615 190.778 196.823 191.798C196.043 192.806 195.653 194.3 195.653 196.28C195.653 198.092 196.043 199.496 196.823 200.492C197.615 201.476 198.773 201.968 200.297 201.968C201.257 201.968 202.079 201.758 202.763 201.338C203.447 200.918 203.969 200.312 204.329 199.52L209.225 200.924C208.493 202.7 207.335 204.08 205.751 205.064C204.179 206.048 202.457 206.54 200.585 206.54ZM194.141 197.648V194.012H207.029V197.648H194.141ZM222.464 206.54C220.532 206.54 218.918 206.09 217.622 205.19C216.326 204.29 215.348 203.066 214.688 201.518C214.04 199.97 213.716 198.224 213.716 196.28C213.716 194.336 214.04 192.59 214.688 191.042C215.336 189.494 216.29 188.27 217.55 187.37C218.81 186.47 220.364 186.02 222.212 186.02C224.072 186.02 225.692 186.464 227.072 187.352C228.452 188.24 229.52 189.458 230.276 191.006C231.044 192.542 231.428 194.3 231.428 196.28C231.428 198.224 231.05 199.97 230.294 201.518C229.55 203.066 228.506 204.29 227.162 205.19C225.818 206.09 224.252 206.54 222.464 206.54ZM212.888 214.64V186.56H217.208V199.88H217.82V214.64H212.888ZM221.672 202.184C222.728 202.184 223.592 201.92 224.264 201.392C224.936 200.864 225.434 200.156 225.758 199.268C226.082 198.368 226.244 197.372 226.244 196.28C226.244 195.2 226.076 194.216 225.74 193.328C225.404 192.428 224.882 191.714 224.174 191.186C223.478 190.646 222.584 190.376 221.492 190.376C220.472 190.376 219.644 190.622 219.008 191.114C218.384 191.606 217.928 192.296 217.64 193.184C217.352 194.072 217.208 195.104 217.208 196.28C217.208 197.456 217.352 198.488 217.64 199.376C217.928 200.264 218.396 200.954 219.044 201.446C219.704 201.938 220.58 202.184 221.672 202.184ZM242.458 206.54C240.01 206.54 238.03 205.988 236.518 204.884C235.018 203.768 234.106 202.196 233.782 200.168L238.786 199.412C238.99 200.324 239.44 201.038 240.136 201.554C240.844 202.07 241.738 202.328 242.818 202.328C243.706 202.328 244.39 202.16 244.87 201.824C245.35 201.476 245.59 200.996 245.59 200.384C245.59 200 245.494 199.694 245.302 199.466C245.11 199.226 244.678 198.992 244.006 198.764C243.346 198.536 242.314 198.236 240.91 197.864C239.326 197.456 238.06 197 237.112 196.496C236.164 195.992 235.48 195.392 235.06 194.696C234.64 193.988 234.43 193.136 234.43 192.14C234.43 190.892 234.748 189.812 235.384 188.9C236.02 187.976 236.914 187.268 238.066 186.776C239.23 186.272 240.598 186.02 242.17 186.02C243.694 186.02 245.044 186.254 246.22 186.722C247.396 187.19 248.344 187.856 249.064 188.72C249.796 189.584 250.246 190.604 250.414 191.78L245.41 192.68C245.326 191.96 245.014 191.39 244.474 190.97C243.934 190.55 243.202 190.304 242.278 190.232C241.378 190.172 240.652 190.292 240.1 190.592C239.56 190.892 239.29 191.324 239.29 191.888C239.29 192.224 239.404 192.506 239.632 192.734C239.872 192.962 240.358 193.196 241.09 193.436C241.834 193.676 242.962 193.988 244.474 194.372C245.95 194.756 247.132 195.206 248.02 195.722C248.92 196.226 249.574 196.838 249.982 197.558C250.39 198.266 250.594 199.124 250.594 200.132C250.594 202.124 249.874 203.69 248.434 204.83C246.994 205.97 245.002 206.54 242.458 206.54Z" fill="#2471FB"/>
<path d="M176.86 255.163L174.394 252.709L175.3 251.803L177.754 254.257L176.86 255.163ZM173.752 255.163C172.888 255.163 172.148 254.975 171.532 254.599C170.916 254.219 170.442 253.691 170.11 253.015C169.782 252.339 169.618 251.555 169.618 250.663C169.618 249.771 169.782 248.987 170.11 248.311C170.442 247.635 170.916 247.109 171.532 246.733C172.148 246.353 172.888 246.163 173.752 246.163C174.616 246.163 175.356 246.353 175.972 246.733C176.592 247.109 177.066 247.635 177.394 248.311C177.726 248.987 177.892 249.771 177.892 250.663C177.892 251.555 177.726 252.339 177.394 253.015C177.066 253.691 176.592 254.219 175.972 254.599C175.356 254.975 174.616 255.163 173.752 255.163ZM173.752 253.801C174.332 253.805 174.814 253.677 175.198 253.417C175.586 253.157 175.876 252.791 176.068 252.319C176.264 251.847 176.362 251.295 176.362 250.663C176.362 250.031 176.264 249.483 176.068 249.019C175.876 248.551 175.586 248.187 175.198 247.927C174.814 247.667 174.332 247.533 173.752 247.525C173.172 247.521 172.69 247.649 172.306 247.909C171.922 248.169 171.632 248.535 171.436 249.007C171.244 249.479 171.148 250.031 171.148 250.663C171.148 251.295 171.244 251.845 171.436 252.313C171.628 252.777 171.916 253.139 172.3 253.399C172.688 253.659 173.172 253.793 173.752 253.801ZM181.516 255.169C181.036 255.169 180.64 255.089 180.328 254.929C180.016 254.769 179.768 254.565 179.584 254.317C179.4 254.069 179.264 253.805 179.176 253.525C179.088 253.245 179.03 252.981 179.002 252.733C178.978 252.481 178.966 252.277 178.966 252.121V248.503H180.43V251.623C180.43 251.823 180.444 252.049 180.472 252.301C180.5 252.549 180.564 252.789 180.664 253.021C180.768 253.249 180.92 253.437 181.12 253.585C181.324 253.733 181.598 253.807 181.942 253.807C182.126 253.807 182.308 253.777 182.488 253.717C182.668 253.657 182.83 253.555 182.974 253.411C183.122 253.263 183.24 253.061 183.328 252.805C183.416 252.549 183.46 252.225 183.46 251.833L184.318 252.199C184.318 252.751 184.21 253.251 183.994 253.699C183.782 254.147 183.468 254.505 183.052 254.773C182.636 255.037 182.124 255.169 181.516 255.169ZM183.634 254.983V252.973H183.46V248.503H184.912V254.983H183.634ZM186.718 247.519V246.193H188.164V247.519H186.718ZM186.718 254.983V248.503H188.164V254.983H186.718ZM192.775 255.163C192.107 255.163 191.537 255.015 191.065 254.719C190.593 254.419 190.231 254.011 189.979 253.495C189.731 252.979 189.605 252.395 189.601 251.743C189.605 251.079 189.735 250.491 189.991 249.979C190.251 249.463 190.619 249.059 191.095 248.767C191.571 248.471 192.137 248.323 192.793 248.323C193.529 248.323 194.151 248.509 194.659 248.881C195.171 249.249 195.505 249.753 195.661 250.393L194.221 250.783C194.109 250.435 193.923 250.165 193.663 249.973C193.403 249.777 193.107 249.679 192.775 249.679C192.399 249.679 192.089 249.769 191.845 249.949C191.601 250.125 191.421 250.369 191.305 250.681C191.189 250.993 191.131 251.347 191.131 251.743C191.131 252.359 191.269 252.857 191.545 253.237C191.821 253.617 192.231 253.807 192.775 253.807C193.159 253.807 193.461 253.719 193.681 253.543C193.905 253.367 194.073 253.113 194.185 252.781L195.661 253.111C195.461 253.771 195.111 254.279 194.611 254.635C194.111 254.987 193.499 255.163 192.775 255.163ZM196.851 254.983L196.863 246.343H198.327V251.623L200.697 248.503H202.503L199.989 251.743L202.719 254.983H200.805L198.327 251.863V254.983H196.851ZM206.287 254.983V248.401C206.287 248.237 206.293 248.057 206.305 247.861C206.317 247.661 206.351 247.463 206.407 247.267C206.463 247.071 206.565 246.893 206.713 246.733C206.897 246.529 207.095 246.389 207.307 246.313C207.523 246.233 207.735 246.189 207.943 246.181C208.151 246.169 208.333 246.163 208.489 246.163H209.299V247.339H208.549C208.273 247.339 208.067 247.409 207.931 247.549C207.799 247.685 207.733 247.865 207.733 248.089V254.983H206.287ZM205.243 249.637V248.503H209.299V249.637H205.243ZM211.894 255.163C211.426 255.163 211.03 255.075 210.706 254.899C210.382 254.719 210.136 254.481 209.968 254.185C209.804 253.889 209.722 253.563 209.722 253.207C209.722 252.895 209.774 252.615 209.878 252.367C209.982 252.115 210.142 251.899 210.358 251.719C210.574 251.535 210.854 251.385 211.198 251.269C211.458 251.185 211.762 251.109 212.11 251.041C212.462 250.973 212.842 250.911 213.25 250.855C213.662 250.795 214.092 250.731 214.54 250.663L214.024 250.957C214.028 250.509 213.928 250.179 213.724 249.967C213.52 249.755 213.176 249.649 212.692 249.649C212.4 249.649 212.118 249.717 211.846 249.853C211.574 249.989 211.384 250.223 211.276 250.555L209.956 250.141C210.116 249.593 210.42 249.153 210.868 248.821C211.32 248.489 211.928 248.323 212.692 248.323C213.268 248.323 213.774 248.417 214.21 248.605C214.65 248.793 214.976 249.101 215.188 249.529C215.304 249.757 215.374 249.991 215.398 250.231C215.422 250.467 215.434 250.725 215.434 251.005V254.983H214.168V253.579L214.378 253.807C214.086 254.275 213.744 254.619 213.352 254.839C212.964 255.055 212.478 255.163 211.894 255.163ZM212.182 254.011C212.51 254.011 212.79 253.953 213.022 253.837C213.254 253.721 213.438 253.579 213.574 253.411C213.714 253.243 213.808 253.085 213.856 252.937C213.932 252.753 213.974 252.543 213.982 252.307C213.994 252.067 214 251.873 214 251.725L214.444 251.857C214.008 251.925 213.634 251.985 213.322 252.037C213.01 252.089 212.742 252.139 212.518 252.187C212.294 252.231 212.096 252.281 211.924 252.337C211.756 252.397 211.614 252.467 211.498 252.547C211.382 252.627 211.292 252.719 211.228 252.823C211.168 252.927 211.138 253.049 211.138 253.189C211.138 253.349 211.178 253.491 211.258 253.615C211.338 253.735 211.454 253.831 211.606 253.903C211.762 253.975 211.954 254.011 212.182 254.011ZM219.81 255.163C219.142 255.163 218.572 255.015 218.1 254.719C217.628 254.419 217.266 254.011 217.014 253.495C216.766 252.979 216.64 252.395 216.636 251.743C216.64 251.079 216.77 250.491 217.026 249.979C217.286 249.463 217.654 249.059 218.13 248.767C218.606 248.471 219.172 248.323 219.828 248.323C220.564 248.323 221.186 248.509 221.694 248.881C222.206 249.249 222.54 249.753 222.696 250.393L221.256 250.783C221.144 250.435 220.958 250.165 220.698 249.973C220.438 249.777 220.142 249.679 219.81 249.679C219.434 249.679 219.124 249.769 218.88 249.949C218.636 250.125 218.456 250.369 218.34 250.681C218.224 250.993 218.166 251.347 218.166 251.743C218.166 252.359 218.304 252.857 218.58 253.237C218.856 253.617 219.266 253.807 219.81 253.807C220.194 253.807 220.496 253.719 220.716 253.543C220.94 253.367 221.108 253.113 221.22 252.781L222.696 253.111C222.496 253.771 222.146 254.279 221.646 254.635C221.146 254.987 220.534 255.163 219.81 255.163ZM227.697 254.983C227.269 255.063 226.849 255.097 226.437 255.085C226.029 255.077 225.663 255.003 225.339 254.863C225.015 254.719 224.769 254.493 224.601 254.185C224.453 253.905 224.375 253.619 224.367 253.327C224.359 253.035 224.355 252.705 224.355 252.337V246.703H225.795V252.253C225.795 252.513 225.797 252.741 225.801 252.937C225.809 253.133 225.851 253.293 225.927 253.417C226.071 253.657 226.301 253.791 226.617 253.819C226.933 253.847 227.293 253.831 227.697 253.771V254.983ZM223.179 249.637V248.503H227.697V249.637H223.179ZM231.592 255.163C230.792 255.163 230.142 254.983 229.642 254.623C229.142 254.263 228.838 253.757 228.73 253.105L230.206 252.877C230.282 253.197 230.45 253.449 230.71 253.633C230.97 253.817 231.298 253.909 231.694 253.909C232.042 253.909 232.31 253.841 232.498 253.705C232.69 253.565 232.786 253.375 232.786 253.135C232.786 252.987 232.75 252.869 232.678 252.781C232.61 252.689 232.458 252.601 232.222 252.517C231.986 252.433 231.624 252.327 231.136 252.199C230.592 252.055 230.16 251.901 229.84 251.737C229.52 251.569 229.29 251.371 229.15 251.143C229.01 250.915 228.94 250.639 228.94 250.315C228.94 249.911 229.046 249.559 229.258 249.259C229.47 248.959 229.766 248.729 230.146 248.569C230.526 248.405 230.974 248.323 231.49 248.323C231.994 248.323 232.44 248.401 232.828 248.557C233.22 248.713 233.536 248.935 233.776 249.223C234.016 249.511 234.164 249.849 234.22 250.237L232.744 250.501C232.708 250.225 232.582 250.007 232.366 249.847C232.154 249.687 231.87 249.597 231.514 249.577C231.174 249.557 230.9 249.609 230.692 249.733C230.484 249.853 230.38 250.023 230.38 250.243C230.38 250.367 230.422 250.473 230.506 250.561C230.59 250.649 230.758 250.737 231.01 250.825C231.266 250.913 231.646 251.021 232.15 251.149C232.666 251.281 233.078 251.433 233.386 251.605C233.698 251.773 233.922 251.975 234.058 252.211C234.198 252.447 234.268 252.733 234.268 253.069C234.268 253.721 234.03 254.233 233.554 254.605C233.082 254.977 232.428 255.163 231.592 255.163Z" fill="#5A5B70"/>
<circle cx="202" cy="266.983" r="3" fill="#2471FB"/>
<path d="M161.256 289.983V281.343H164.826C164.91 281.343 165.018 281.347 165.15 281.355C165.282 281.359 165.404 281.371 165.516 281.391C166.016 281.467 166.428 281.633 166.752 281.889C167.08 282.145 167.322 282.469 167.478 282.861C167.638 283.249 167.718 283.681 167.718 284.157C167.718 284.629 167.638 285.061 167.478 285.453C167.318 285.841 167.074 286.163 166.746 286.419C166.422 286.675 166.012 286.841 165.516 286.917C165.404 286.933 165.28 286.945 165.144 286.953C165.012 286.961 164.906 286.965 164.826 286.965H162.702V289.983H161.256ZM162.702 285.615H164.766C164.846 285.615 164.936 285.611 165.036 285.603C165.136 285.595 165.228 285.579 165.312 285.555C165.552 285.495 165.74 285.389 165.876 285.237C166.016 285.085 166.114 284.913 166.17 284.721C166.23 284.529 166.26 284.341 166.26 284.157C166.26 283.973 166.23 283.785 166.17 283.593C166.114 283.397 166.016 283.223 165.876 283.071C165.74 282.919 165.552 282.813 165.312 282.753C165.228 282.729 165.136 282.715 165.036 282.711C164.936 282.703 164.846 282.699 164.766 282.699H162.702V285.615ZM170.568 290.163C170.1 290.163 169.704 290.075 169.38 289.899C169.056 289.719 168.81 289.481 168.642 289.185C168.478 288.889 168.396 288.563 168.396 288.207C168.396 287.895 168.448 287.615 168.552 287.367C168.656 287.115 168.816 286.899 169.032 286.719C169.248 286.535 169.528 286.385 169.872 286.269C170.132 286.185 170.436 286.109 170.784 286.041C171.136 285.973 171.516 285.911 171.924 285.855C172.336 285.795 172.766 285.731 173.214 285.663L172.698 285.957C172.702 285.509 172.602 285.179 172.398 284.967C172.194 284.755 171.85 284.649 171.366 284.649C171.074 284.649 170.792 284.717 170.52 284.853C170.248 284.989 170.058 285.223 169.95 285.555L168.63 285.141C168.79 284.593 169.094 284.153 169.542 283.821C169.994 283.489 170.602 283.323 171.366 283.323C171.942 283.323 172.448 283.417 172.884 283.605C173.324 283.793 173.65 284.101 173.862 284.529C173.978 284.757 174.048 284.991 174.072 285.231C174.096 285.467 174.108 285.725 174.108 286.005V289.983H172.842V288.579L173.052 288.807C172.76 289.275 172.418 289.619 172.026 289.839C171.638 290.055 171.152 290.163 170.568 290.163ZM170.856 289.011C171.184 289.011 171.464 288.953 171.696 288.837C171.928 288.721 172.112 288.579 172.248 288.411C172.388 288.243 172.482 288.085 172.53 287.937C172.606 287.753 172.648 287.543 172.656 287.307C172.668 287.067 172.674 286.873 172.674 286.725L173.118 286.857C172.682 286.925 172.308 286.985 171.996 287.037C171.684 287.089 171.416 287.139 171.192 287.187C170.968 287.231 170.77 287.281 170.598 287.337C170.43 287.397 170.288 287.467 170.172 287.547C170.056 287.627 169.966 287.719 169.902 287.823C169.842 287.927 169.812 288.049 169.812 288.189C169.812 288.349 169.852 288.491 169.932 288.615C170.012 288.735 170.128 288.831 170.28 288.903C170.436 288.975 170.628 289.011 170.856 289.011ZM179.468 289.983C179.04 290.063 178.62 290.097 178.208 290.085C177.8 290.077 177.434 290.003 177.11 289.863C176.786 289.719 176.54 289.493 176.372 289.185C176.224 288.905 176.146 288.619 176.138 288.327C176.13 288.035 176.126 287.705 176.126 287.337V281.703H177.566V287.253C177.566 287.513 177.568 287.741 177.572 287.937C177.58 288.133 177.622 288.293 177.698 288.417C177.842 288.657 178.072 288.791 178.388 288.819C178.704 288.847 179.064 288.831 179.468 288.771V289.983ZM174.95 284.637V283.503H179.468V284.637H174.95ZM180.981 282.519V281.193H182.427V282.519H180.981ZM180.981 289.983V283.503H182.427V289.983H180.981ZM187.171 290.163C186.515 290.163 185.939 290.021 185.443 289.737C184.947 289.453 184.559 289.059 184.279 288.555C184.003 288.051 183.865 287.471 183.865 286.815C183.865 286.107 184.001 285.493 184.273 284.973C184.545 284.449 184.923 284.043 185.407 283.755C185.891 283.467 186.451 283.323 187.087 283.323C187.759 283.323 188.329 283.481 188.797 283.797C189.269 284.109 189.619 284.551 189.847 285.123C190.075 285.695 190.161 286.369 190.105 287.145H188.671V286.617C188.667 285.913 188.543 285.399 188.299 285.075C188.055 284.751 187.671 284.589 187.147 284.589C186.555 284.589 186.115 284.773 185.827 285.141C185.539 285.505 185.395 286.039 185.395 286.743C185.395 287.399 185.539 287.907 185.827 288.267C186.115 288.627 186.535 288.807 187.087 288.807C187.443 288.807 187.749 288.729 188.005 288.573C188.265 288.413 188.465 288.183 188.605 287.883L190.033 288.315C189.785 288.899 189.401 289.353 188.881 289.677C188.365 290.001 187.795 290.163 187.171 290.163ZM184.939 287.145V286.053H189.397V287.145H184.939ZM195.75 289.983V286.863C195.75 286.659 195.736 286.433 195.708 286.185C195.68 285.937 195.614 285.699 195.51 285.471C195.41 285.239 195.258 285.049 195.054 284.901C194.854 284.753 194.582 284.679 194.238 284.679C194.054 284.679 193.872 284.709 193.692 284.769C193.512 284.829 193.348 284.933 193.2 285.081C193.056 285.225 192.94 285.425 192.852 285.681C192.764 285.933 192.72 286.257 192.72 286.653L191.862 286.287C191.862 285.735 191.968 285.235 192.18 284.787C192.396 284.339 192.712 283.983 193.128 283.719C193.544 283.451 194.056 283.317 194.664 283.317C195.144 283.317 195.54 283.397 195.852 283.557C196.164 283.717 196.412 283.921 196.596 284.169C196.78 284.417 196.916 284.681 197.004 284.961C197.092 285.241 197.148 285.507 197.172 285.759C197.2 286.007 197.214 286.209 197.214 286.365V289.983H195.75ZM191.256 289.983V283.503H192.546V285.513H192.72V289.983H191.256ZM202.577 289.983C202.149 290.063 201.729 290.097 201.317 290.085C200.909 290.077 200.543 290.003 200.219 289.863C199.895 289.719 199.649 289.493 199.481 289.185C199.333 288.905 199.255 288.619 199.247 288.327C199.239 288.035 199.235 287.705 199.235 287.337V281.703H200.675V287.253C200.675 287.513 200.677 287.741 200.681 287.937C200.689 288.133 200.731 288.293 200.807 288.417C200.951 288.657 201.181 288.791 201.497 288.819C201.813 288.847 202.173 288.831 202.577 288.771V289.983ZM198.059 284.637V283.503H202.577V284.637H198.059ZM209.571 290.163C208.939 290.163 208.369 290.053 207.861 289.833C207.357 289.613 206.941 289.299 206.613 288.891C206.289 288.479 206.083 287.991 205.995 287.427L207.495 287.199C207.623 287.711 207.885 288.107 208.281 288.387C208.681 288.667 209.141 288.807 209.661 288.807C209.969 288.807 210.259 288.759 210.531 288.663C210.803 288.567 211.023 288.427 211.191 288.243C211.363 288.059 211.449 287.833 211.449 287.565C211.449 287.445 211.429 287.335 211.389 287.235C211.349 287.131 211.289 287.039 211.209 286.959C211.133 286.879 211.033 286.807 210.909 286.743C210.789 286.675 210.649 286.617 210.489 286.569L208.257 285.909C208.065 285.853 207.857 285.779 207.633 285.687C207.413 285.591 207.203 285.461 207.003 285.297C206.807 285.129 206.645 284.917 206.517 284.661C206.393 284.401 206.331 284.081 206.331 283.701C206.331 283.145 206.471 282.679 206.751 282.303C207.035 281.923 207.415 281.639 207.891 281.451C208.371 281.263 208.903 281.171 209.487 281.175C210.079 281.179 210.607 281.281 211.071 281.481C211.535 281.677 211.923 281.963 212.235 282.339C212.547 282.715 212.767 283.169 212.895 283.701L211.341 283.971C211.277 283.667 211.153 283.409 210.969 283.197C210.789 282.981 210.567 282.817 210.303 282.705C210.043 282.593 209.765 282.533 209.469 282.525C209.181 282.521 208.913 282.565 208.665 282.657C208.421 282.745 208.223 282.873 208.071 283.041C207.923 283.209 207.849 283.405 207.849 283.629C207.849 283.841 207.913 284.015 208.041 284.151C208.169 284.283 208.327 284.389 208.515 284.469C208.707 284.545 208.901 284.609 209.097 284.661L210.645 285.093C210.857 285.149 211.095 285.225 211.359 285.321C211.623 285.417 211.877 285.551 212.121 285.723C212.365 285.895 212.565 286.121 212.721 286.401C212.881 286.681 212.961 287.037 212.961 287.469C212.961 287.917 212.867 288.311 212.679 288.651C212.495 288.987 212.245 289.267 211.929 289.491C211.613 289.715 211.251 289.883 210.843 289.995C210.439 290.107 210.015 290.163 209.571 290.163ZM216.072 290.163C215.604 290.163 215.208 290.075 214.884 289.899C214.56 289.719 214.314 289.481 214.146 289.185C213.982 288.889 213.9 288.563 213.9 288.207C213.9 287.895 213.952 287.615 214.056 287.367C214.16 287.115 214.32 286.899 214.536 286.719C214.752 286.535 215.032 286.385 215.376 286.269C215.636 286.185 215.94 286.109 216.288 286.041C216.64 285.973 217.02 285.911 217.428 285.855C217.84 285.795 218.27 285.731 218.718 285.663L218.202 285.957C218.206 285.509 218.106 285.179 217.902 284.967C217.698 284.755 217.354 284.649 216.87 284.649C216.578 284.649 216.296 284.717 216.024 284.853C215.752 284.989 215.562 285.223 215.454 285.555L214.134 285.141C214.294 284.593 214.598 284.153 215.046 283.821C215.498 283.489 216.106 283.323 216.87 283.323C217.446 283.323 217.952 283.417 218.388 283.605C218.828 283.793 219.154 284.101 219.366 284.529C219.482 284.757 219.552 284.991 219.576 285.231C219.6 285.467 219.612 285.725 219.612 286.005V289.983H218.346V288.579L218.556 288.807C218.264 289.275 217.922 289.619 217.53 289.839C217.142 290.055 216.656 290.163 216.072 290.163ZM216.36 289.011C216.688 289.011 216.968 288.953 217.2 288.837C217.432 288.721 217.616 288.579 217.752 288.411C217.892 288.243 217.986 288.085 218.034 287.937C218.11 287.753 218.152 287.543 218.16 287.307C218.172 287.067 218.178 286.873 218.178 286.725L218.622 286.857C218.186 286.925 217.812 286.985 217.5 287.037C217.188 287.089 216.92 287.139 216.696 287.187C216.472 287.231 216.274 287.281 216.102 287.337C215.934 287.397 215.792 287.467 215.676 287.547C215.56 287.627 215.47 287.719 215.406 287.823C215.346 287.927 215.316 288.049 215.316 288.189C215.316 288.349 215.356 288.491 215.436 288.615C215.516 288.735 215.632 288.831 215.784 288.903C215.94 288.975 216.132 289.011 216.36 289.011ZM221.738 289.983V283.401C221.738 283.237 221.744 283.057 221.756 282.861C221.768 282.661 221.802 282.463 221.858 282.267C221.914 282.071 222.016 281.893 222.164 281.733C222.348 281.529 222.546 281.389 222.758 281.313C222.974 281.233 223.186 281.189 223.394 281.181C223.602 281.169 223.784 281.163 223.94 281.163H224.75V282.339H224C223.724 282.339 223.518 282.409 223.382 282.549C223.25 282.685 223.184 282.865 223.184 283.089V289.983H221.738ZM220.694 284.637V283.503H224.75V284.637H220.694ZM228.421 290.163C227.765 290.163 227.189 290.021 226.693 289.737C226.197 289.453 225.809 289.059 225.529 288.555C225.253 288.051 225.115 287.471 225.115 286.815C225.115 286.107 225.251 285.493 225.523 284.973C225.795 284.449 226.173 284.043 226.657 283.755C227.141 283.467 227.701 283.323 228.337 283.323C229.009 283.323 229.579 283.481 230.047 283.797C230.519 284.109 230.869 284.551 231.097 285.123C231.325 285.695 231.411 286.369 231.355 287.145H229.921V286.617C229.917 285.913 229.793 285.399 229.549 285.075C229.305 284.751 228.921 284.589 228.397 284.589C227.805 284.589 227.365 284.773 227.077 285.141C226.789 285.505 226.645 286.039 226.645 286.743C226.645 287.399 226.789 287.907 227.077 288.267C227.365 288.627 227.785 288.807 228.337 288.807C228.693 288.807 228.999 288.729 229.255 288.573C229.515 288.413 229.715 288.183 229.855 287.883L231.283 288.315C231.035 288.899 230.651 289.353 230.131 289.677C229.615 290.001 229.045 290.163 228.421 290.163ZM226.189 287.145V286.053H230.647V287.145H226.189ZM236.492 289.983C236.064 290.063 235.644 290.097 235.232 290.085C234.824 290.077 234.458 290.003 234.134 289.863C233.81 289.719 233.564 289.493 233.396 289.185C233.248 288.905 233.17 288.619 233.162 288.327C233.154 288.035 233.15 287.705 233.15 287.337V281.703H234.59V287.253C234.59 287.513 234.592 287.741 234.596 287.937C234.604 288.133 234.646 288.293 234.722 288.417C234.866 288.657 235.096 288.791 235.412 288.819C235.728 288.847 236.088 288.831 236.492 288.771V289.983ZM231.974 284.637V283.503H236.492V284.637H231.974ZM238.561 292.863L239.809 289.437L239.833 290.445L237.007 283.503H238.513L240.517 288.639H240.133L242.083 283.503H243.529L239.917 292.863H238.561Z" fill="#5A5B70"/>
</g>
<defs>
<filter id="filter0_d" x="311" y="81.9828" width="86" height="86" filterUnits="userSpaceOnUse" color-interpolation-filters="sRGB">
<feFlood flood-opacity="0" result="BackgroundImageFix"/>
<feColorMatrix in="SourceAlpha" type="matrix" values="0 0 0 0 0 0 0 0 0 0 0 0 0 0 0 0 0 0 127 0" result="hardAlpha"/>
<feOffset dy="9"/>
<feGaussianBlur stdDeviation="7.5"/>
<feColorMatrix type="matrix" values="0 0 0 0 0 0 0 0 0 0.0992429 0 0 0 0 0.335469 0 0 0 0.258504 0"/>
<feBlend mode="normal" in2="BackgroundImageFix" result="effect1_dropShadow"/>
<feBlend mode="normal" in="SourceGraphic" in2="effect1_dropShadow" result="shape"/>
</filter>
<filter id="filter1_d" x="327" y="90.9828" width="55" height="55" filterUnits="userSpaceOnUse" color-interpolation-filters="sRGB">
<feFlood flood-opacity="0" result="BackgroundImageFix"/>
<feColorMatrix in="SourceAlpha" type="matrix" values="0 0 0 0 0 0 0 0 0 0 0 0 0 0 0 0 0 0 127 0" result="hardAlpha"/>
<feOffset dy="2"/>
<feGaussianBlur stdDeviation="4.5"/>
<feColorMatrix type="matrix" values="0 0 0 0 0 0 0 0 0 0.0992429 0 0 0 0 0.335469 0 0 0 0.258504 0"/>
<feBlend mode="normal" in2="BackgroundImageFix" result="effect1_dropShadow"/>
<feBlend mode="normal" in="SourceGraphic" in2="effect1_dropShadow" result="shape"/>
</filter>
<filter id="filter2_d" x="303" y="251.983" width="86" height="86" filterUnits="userSpaceOnUse" color-interpolation-filters="sRGB">
<feFlood flood-opacity="0" result="BackgroundImageFix"/>
<feColorMatrix in="SourceAlpha" type="matrix" values="0 0 0 0 0 0 0 0 0 0 0 0 0 0 0 0 0 0 127 0" result="hardAlpha"/>
<feOffset dy="9"/>
<feGaussianBlur stdDeviation="7.5"/>
<feColorMatrix type="matrix" values="0 0 0 0 0 0 0 0 0 0.0992429 0 0 0 0 0.335469 0 0 0 0.258504 0"/>
<feBlend mode="normal" in2="BackgroundImageFix" result="effect1_dropShadow"/>
<feBlend mode="normal" in="SourceGraphic" in2="effect1_dropShadow" result="shape"/>
</filter>
<filter id="filter3_d" x="319" y="260.983" width="55" height="55" filterUnits="userSpaceOnUse" color-interpolation-filters="sRGB">
<feFlood flood-opacity="0" result="BackgroundImageFix"/>
<feColorMatrix in="SourceAlpha" type="matrix" values="0 0 0 0 0 0 0 0 0 0 0 0 0 0 0 0 0 0 127 0" result="hardAlpha"/>
<feOffset dy="2"/>
<feGaussianBlur stdDeviation="4.5"/>
<feColorMatrix type="matrix" values="0 0 0 0 0 0 0 0 0 0.0992429 0 0 0 0 0.335469 0 0 0 0.258504 0"/>
<feBlend mode="normal" in2="BackgroundImageFix" result="effect1_dropShadow"/>
<feBlend mode="normal" in="SourceGraphic" in2="effect1_dropShadow" result="shape"/>
</filter>
<filter id="filter4_d" x="15" y="251.983" width="86" height="86" filterUnits="userSpaceOnUse" color-interpolation-filters="sRGB">
<feFlood flood-opacity="0" result="BackgroundImageFix"/>
<feColorMatrix in="SourceAlpha" type="matrix" values="0 0 0 0 0 0 0 0 0 0 0 0 0 0 0 0 0 0 127 0" result="hardAlpha"/>
<feOffset dy="9"/>
<feGaussianBlur stdDeviation="7.5"/>
<feColorMatrix type="matrix" values="0 0 0 0 0 0 0 0 0 0.0992429 0 0 0 0 0.335469 0 0 0 0.258504 0"/>
<feBlend mode="normal" in2="BackgroundImageFix" result="effect1_dropShadow"/>
<feBlend mode="normal" in="SourceGraphic" in2="effect1_dropShadow" result="shape"/>
</filter>
<filter id="filter5_d" x="31" y="260.983" width="55" height="55" filterUnits="userSpaceOnUse" color-interpolation-filters="sRGB">
<feFlood flood-opacity="0" result="BackgroundImageFix"/>
<feColorMatrix in="SourceAlpha" type="matrix" values="0 0 0 0 0 0 0 0 0 0 0 0 0 0 0 0 0 0 127 0" result="hardAlpha"/>
<feOffset dy="2"/>
<feGaussianBlur stdDeviation="4.5"/>
<feColorMatrix type="matrix" values="0 0 0 0 0 0 0 0 0 0.0992429 0 0 0 0 0.335469 0 0 0 0.258504 0"/>
<feBlend mode="normal" in2="BackgroundImageFix" result="effect1_dropShadow"/>
<feBlend mode="normal" in="SourceGraphic" in2="effect1_dropShadow" result="shape"/>
</filter>
<filter id="filter6_d" x="0" y="81.9828" width="86" height="86" filterUnits="userSpaceOnUse" color-interpolation-filters="sRGB">
<feFlood flood-opacity="0" result="BackgroundImageFix"/>
<feColorMatrix in="SourceAlpha" type="matrix" values="0 0 0 0 0 0 0 0 0 0 0 0 0 0 0 0 0 0 127 0" result="hardAlpha"/>
<feOffset dy="9"/>
<feGaussianBlur stdDeviation="7.5"/>
<feColorMatrix type="matrix" values="0 0 0 0 0 0 0 0 0 0.0992429 0 0 0 0 0.335469 0 0 0 0.258504 0"/>
<feBlend mode="normal" in2="BackgroundImageFix" result="effect1_dropShadow"/>
<feBlend mode="normal" in="SourceGraphic" in2="effect1_dropShadow" result="shape"/>
</filter>
<filter id="filter7_d" x="16" y="90.9828" width="55" height="55" filterUnits="userSpaceOnUse" color-interpolation-filters="sRGB">
<feFlood flood-opacity="0" result="BackgroundImageFix"/>
<feColorMatrix in="SourceAlpha" type="matrix" values="0 0 0 0 0 0 0 0 0 0 0 0 0 0 0 0 0 0 127 0" result="hardAlpha"/>
<feOffset dy="2"/>
<feGaussianBlur stdDeviation="4.5"/>
<feColorMatrix type="matrix" values="0 0 0 0 0 0 0 0 0 0.0992429 0 0 0 0 0.335469 0 0 0 0.258504 0"/>
<feBlend mode="normal" in2="BackgroundImageFix" result="effect1_dropShadow"/>
<feBlend mode="normal" in="SourceGraphic" in2="effect1_dropShadow" result="shape"/>
</filter>
<clipPath id="clip0">
<rect width="182" height="164.983" fill="white" transform="translate(110 129)"/>
</clipPath>
</defs>
</svg>
