<svg width="25" height="25" viewBox="0 0 25 25" fill="none" xmlns="http://www.w3.org/2000/svg">
<path d="M6.15041 16.1647V17.0085C6.15041 21.1804 9.66604 24.5085 14.0254 24.5085C18.3379 24.5085 21.9004 21.1804 21.9004 17.0085V12.3679C23.4004 11.8991 24.4785 10.4929 24.5254 8.80535C24.5254 6.78973 22.8848 5.05535 20.8223 5.00848C18.7129 4.9616 17.0254 6.69598 17.0254 8.75848C17.0254 10.446 18.1035 11.8991 19.6504 12.3679V17.0085C19.6504 19.9147 17.1192 22.2585 14.0254 22.2585C10.8848 22.2585 8.40041 19.9147 8.40041 17.0085V16.1647C11.5879 15.6491 14.0254 12.8835 14.0254 9.50848V1.82098C14.0254 1.53973 13.8379 1.30535 13.5567 1.25848L10.2754 0.555351C9.99416 0.461601 9.71291 0.649101 9.61916 0.977226L9.38479 2.05535C9.33791 2.38348 9.52541 2.66473 9.80666 2.75848L11.7754 3.18035V9.4616C11.7754 11.946 9.75979 14.0085 7.27541 14.0085C4.79104 14.0554 2.77541 12.0397 2.77541 9.50848V3.18035L4.69729 2.75848C5.02541 2.66473 5.21291 2.38348 5.11916 2.05535L4.88479 0.977226C4.83791 0.649101 4.50979 0.461601 4.22854 0.555351L0.947287 1.25848C0.666037 1.30535 0.525412 1.53973 0.525412 1.82098V9.50848C0.525412 12.8835 2.96291 15.6491 6.15041 16.1647ZM20.7754 7.25848C21.5723 7.25848 22.2754 7.9616 22.2754 8.75848C22.2754 9.60223 21.5723 10.2585 20.7754 10.2585C19.9317 10.2585 19.2754 9.60223 19.2754 8.75848C19.2754 7.9616 19.9317 7.25848 20.7754 7.25848Z" fill="white"/>
</svg>
